IKResults
version=1
nRows=45
nColumns=24
inDegrees=yes

Units are S.I. units (second, meters, Newtons, ...)
If the header above contains a line with 'inDegrees', this indicates whether rotational values are in degrees (yes) or radians (no).

endheader
time	pelvis_tilt	pelvis_list	pelvis_rotation	pelvis_tx	pelvis_ty	pelvis_tz	hip_flexion_r	hip_adduction_r	hip_rotation_r	knee_angle_r	ankle_angle_r	subtalar_angle_r	mtp_angle_r	hip_flexion_l	hip_adduction_l	hip_rotation_l	knee_angle_l	ankle_angle_l	subtalar_angle_l	mtp_angle_l	lumbar_extension	lumbar_bending	lumbar_rotation
2.610000	13.325669	3.466229	-177.639819	0.312218	0.614413	-1.211633	66.115969	-30.519487	-20.248924	-91.440841	31.418286	6.441299	0.000000	72.463498	-32.610698	-8.984735	-90.544526	30.556185	18.308516	0.000000	-12.948018	2.785582	2.029277
2.615000	13.307826	3.424595	-177.671880	0.312609	0.609452	-1.211655	66.822804	-30.798580	-19.916681	-92.468531	31.818498	6.530116	0.000000	73.163198	-32.815654	-8.701480	-91.534834	30.905050	18.390194	0.000000	-13.066624	2.727364	2.124922
2.620000	13.264306	3.383454	-177.714497	0.312929	0.604526	-1.211644	67.502540	-31.077778	-19.576929	-93.489393	32.212494	6.668427	0.000000	73.827929	-33.029205	-8.421112	-92.519198	31.271990	18.496486	0.000000	-13.207488	2.677933	2.203243
2.625000	13.245412	3.321591	-177.751682	0.313284	0.599649	-1.211730	68.210800	-31.337678	-19.207791	-94.476568	32.583345	6.762349	0.000000	74.494247	-33.237157	-8.171111	-93.480637	31.635973	18.642100	0.000000	-13.325113	2.601538	2.264094
2.630000	13.218731	3.268538	-177.764470	0.313638	0.594825	-1.211855	68.884252	-31.596436	-18.849051	-95.438623	32.931225	6.900554	0.000000	75.154363	-33.416819	-7.892751	-94.405011	31.999679	18.789821	0.000000	-13.457921	2.527117	2.292290
2.635000	13.187556	3.241683	-177.812804	0.313922	0.590006	-1.211955	69.542139	-31.819384	-18.516774	-96.386230	33.280913	7.040638	0.000000	75.825753	-33.649313	-7.600481	-95.361946	32.379162	18.964733	0.000000	-13.579042	2.483740	2.381688
2.640000	13.125048	3.220950	-177.856862	0.314132	0.585267	-1.212044	70.163110	-32.034311	-18.185328	-97.336998	33.635566	7.167094	0.000000	76.453650	-33.873296	-7.286986	-96.269410	32.729101	19.119248	0.000000	-13.724778	2.452994	2.435841
2.645000	13.090366	3.221131	-177.936972	0.314367	0.580528	-1.212062	70.811730	-32.202337	-17.855563	-98.260957	33.956090	7.280489	0.000000	77.117256	-34.106390	-6.936638	-97.162182	33.064425	19.202213	0.000000	-13.840421	2.457131	2.543143
2.650000	13.042308	3.201695	-178.011165	0.314562	0.575814	-1.212091	71.458219	-32.379969	-17.501348	-99.186382	34.294206	7.336877	0.000000	77.756110	-34.336685	-6.607195	-98.071872	33.394983	19.313587	0.000000	-13.964900	2.429867	2.628967
2.655000	12.979004	3.195433	-178.073837	0.314720	0.571187	-1.212118	72.051883	-32.555479	-17.173507	-100.079502	34.630109	7.400791	0.000000	78.381067	-34.547748	-6.257923	-98.963505	33.764294	19.385316	0.000000	-14.101439	2.422104	2.683670
2.660000	12.975340	3.202587	-178.144420	0.314958	0.566584	-1.212169	72.707968	-32.702602	-16.834303	-100.944521	34.881993	7.553318	0.000000	79.075876	-34.735806	-5.865797	-99.826201	34.071462	19.546114	0.000000	-14.184567	2.438817	2.741809
2.665000	12.906351	3.201528	-178.192397	0.315098	0.562071	-1.212207	73.280966	-32.862912	-16.503482	-101.804118	35.194420	7.611746	0.000000	79.688939	-34.907917	-5.487254	-100.683383	34.408934	19.676868	0.000000	-14.318772	2.446374	2.782296
2.670000	12.866208	3.216745	-178.252073	0.315244	0.557585	-1.212165	73.882823	-33.008004	-16.180037	-102.651963	35.475533	7.692356	0.000000	80.342365	-35.066178	-5.078351	-101.534531	34.730827	19.766754	0.000000	-14.423734	2.470505	2.858736
2.675000	12.809392	3.228555	-178.308370	0.315363	0.553162	-1.212151	74.466659	-33.138274	-15.846918	-103.488694	35.772820	7.722750	0.000000	80.979266	-35.210161	-4.660496	-102.380231	35.029311	19.788342	0.000000	-14.542073	2.485613	2.938121
2.680000	12.746401	3.233556	-178.357218	0.315493	0.548840	-1.212116	75.030883	-33.276276	-15.513877	-104.297778	36.032611	7.792333	0.000000	81.598239	-35.336039	-4.235548	-103.246333	35.358609	19.875829	0.000000	-14.668509	2.505048	2.998618
2.685000	12.639933	3.199641	-178.407724	0.315545	0.544556	-1.212009	75.574819	-33.418586	-15.105264	-105.113668	36.279366	7.908485	0.000000	82.334377	-35.440826	-3.328410	-104.126287	35.306151	20.920313	0.000000	-14.848045	2.497614	3.029824
2.690000	12.628131	3.240402	-178.407274	0.315757	0.540264	-1.211962	76.145758	-33.549401	-14.814278	-105.880109	36.529889	7.938564	0.000000	82.811185	-35.496360	-3.437791	-104.791122	35.851566	19.910465	0.000000	-14.925163	2.561755	3.056952
2.695000	12.521539	3.167010	-178.437781	0.315746	0.536064	-1.211701	76.717031	-33.721764	-14.350972	-106.678887	36.782622	7.998195	0.000000	83.457616	-35.534592	-2.796141	-105.725094	35.918194	20.410524	0.000000	-15.090646	2.541723	3.051668
2.700000	12.420506	3.192462	-178.456585	0.315841	0.531975	-1.211648	77.206984	-33.825207	-14.040405	-107.450126	37.047620	7.949123	0.000000	83.966152	-35.564171	-2.363447	-106.454763	36.292212	20.352867	0.000000	-15.262843	2.585373	3.080253
2.705000	12.322172	3.153619	-178.477346	0.315822	0.527874	-1.211437	77.758938	-33.980282	-13.628984	-108.230806	37.307133	8.044942	0.000000	84.519439	-35.673653	-2.032848	-107.262677	36.484709	20.428233	0.000000	-15.400799	2.572105	3.142336
2.710000	12.268413	3.136001	-178.476369	0.315928	0.523820	-1.211274	78.321074	-34.123367	-13.241646	-108.964407	37.502122	8.151504	0.000000	85.088532	-35.698287	-1.588098	-108.018968	36.737502	20.681818	0.000000	-15.516027	2.585931	3.166790
2.715000	12.147650	3.194816	-178.472805	0.315902	0.519889	-1.211337	78.715205	-34.207017	-12.968090	-109.679669	37.764935	8.235890	0.000000	85.485789	-35.820651	-1.588356	-108.990621	37.480197	20.099759	0.000000	-15.687033	2.652880	3.170277
2.720000	12.052861	3.175928	-178.458788	0.315937	0.515981	-1.211246	79.189743	-34.329401	-12.606725	-110.394367	38.056269	8.227592	0.000000	85.991628	-35.840700	-1.225265	-109.697970	37.721929	20.128211	0.000000	-15.827765	2.654897	3.186672
2.725000	11.977685	3.201902	-178.469195	0.315993	0.512117	-1.211225	79.701612	-34.412500	-12.263420	-111.106344	38.193138	8.125587	0.000000	86.559016	-35.884036	-0.793863	-110.397784	37.939996	20.151946	0.000000	-15.959600	2.698355	3.207272
2.730000	11.864418	3.195096	-178.469200	0.315955	0.508303	-1.210955	80.164343	-34.537625	-11.902484	-111.821703	38.452560	8.065859	0.000000	87.075317	-35.874123	-0.360096	-110.960193	37.998608	20.150096	0.000000	-16.123613	2.730569	3.206904
2.735000	11.759340	3.220404	-178.482470	0.315943	0.504465	-1.210889	80.622879	-34.619537	-11.581234	-112.521586	38.567088	8.185145	0.000000	87.566268	-35.937078	0.010823	-111.794198	38.414416	20.171033	0.000000	-16.272507	2.771019	3.242601
2.740000	11.668648	3.227450	-178.466350	0.315965	0.500715	-1.210750	81.081666	-34.737413	-11.241111	-113.192666	38.799177	8.120318	0.000000	88.080140	-35.934338	0.409722	-112.464714	38.585494	20.234688	0.000000	-16.405113	2.808411	3.233680
2.745000	11.577580	3.257759	-178.457935	0.315962	0.497040	-1.210669	81.523410	-34.815682	-10.927896	-113.843856	38.924971	8.281289	0.000000	88.608307	-35.948317	0.836899	-113.138818	38.736263	20.312127	0.000000	-16.540081	2.853763	3.230344
2.750000	11.484108	3.272598	-178.430539	0.315961	0.493402	-1.210493	81.964612	-34.942371	-10.613491	-114.493901	39.095646	8.321329	0.000000	89.115940	-35.928245	1.232425	-113.774744	38.953979	20.340284	0.000000	-16.677046	2.884120	3.225567
2.755000	11.320845	3.286386	-178.422171	0.315865	0.489886	-1.210343	82.332730	-35.035900	-10.290106	-115.147524	39.283831	8.294994	0.000000	89.538388	-35.953900	1.619131	-114.434223	39.140325	20.336591	0.000000	-16.890881	2.912131	3.229850
2.760000	11.232741	3.307960	-178.400696	0.315882	0.486343	-1.210201	82.775679	-35.139133	-9.973300	-115.778869	39.439979	8.324707	0.000000	90.043224	-35.946041	2.010422	-115.069368	39.312207	20.390006	0.000000	-17.021889	2.946614	3.258025
2.765000	11.134359	3.325801	-178.350691	0.315866	0.482872	-1.210016	83.176159	-35.264007	-9.662775	-116.385307	39.617192	8.344280	0.000000	90.516583	-35.904652	2.384403	-115.692026	39.497380	20.463809	0.000000	-17.166560	2.995904	3.225849
2.770000	10.994599	3.310259	-178.316979	0.315841	0.479507	-1.209917	83.561241	-35.373463	-9.314912	-116.989960	39.779098	8.358650	0.000000	90.913023	-35.904041	2.706648	-116.289398	39.672103	20.546402	0.000000	-17.360302	2.999105	3.175807
2.775000	10.880295	3.325364	-178.291381	0.315801	0.476132	-1.209765	83.957386	-35.457050	-8.978975	-117.589476	39.928665	8.388701	0.000000	91.359464	-35.903414	3.067456	-116.891381	39.836192	20.618458	0.000000	-17.520486	3.046707	3.181959
2.780000	10.749160	3.321995	-178.278625	0.315711	0.472831	-1.209530	84.347093	-35.556735	-8.636960	-118.184226	40.068764	8.404467	0.000000	91.763227	-35.913278	3.394067	-117.482571	40.020463	20.653085	0.000000	-17.696692	3.071036	3.180394
2.785000	10.604274	3.317815	-178.257317	0.315613	0.469585	-1.209344	84.715833	-35.643235	-8.286641	-118.782212	40.221743	8.408900	0.000000	92.153214	-35.932782	3.717542	-118.071466	40.168062	20.678693	0.000000	-17.884344	3.080370	3.176459
2.790000	10.505401	3.330207	-178.222993	0.315586	0.466386	-1.209196	85.102913	-35.726436	-7.959565	-119.343730	40.362354	8.454166	0.000000	92.596690	-35.926490	4.058384	-118.625943	40.299206	20.746248	0.000000	-18.019071	3.106463	3.206110
2.795000	10.390407	3.312950	-178.195074	0.315587	0.463308	-1.209070	85.480992	-35.809358	-7.616316	-119.879972	40.503604	8.483917	0.000000	92.968580	-35.928219	4.337499	-119.154264	40.442652	20.840068	0.000000	-18.181949	3.106798	3.177338
2.800000	10.279845	3.302555	-178.146206	0.315557	0.460249	-1.208970	85.853706	-35.902239	-7.273125	-120.415808	40.639003	8.536659	0.000000	93.358983	-35.923110	4.629603	-119.683822	40.550555	20.970656	0.000000	-18.320280	3.114810	3.162788
2.805000	10.146712	3.292360	-178.129924	0.315507	0.457315	-1.208865	86.203286	-35.955825	-6.936524	-120.939983	40.752549	8.538722	0.000000	93.711679	-35.951672	4.909465	-120.196372	40.686650	21.024409	0.000000	-18.497395	3.115330	3.170306
2.810000	10.017577	3.287016	-178.123209	0.315405	0.454337	-1.208702	86.562996	-36.010580	-6.603011	-121.475692	40.872925	8.523771	0.000000	94.074159	-35.995687	5.200910	-120.749325	40.847072	21.094470	0.000000	-18.656117	3.136653	3.183577
2.815000	9.923322	3.271377	-178.136731	0.315333	0.451408	-1.208528	86.970391	-36.066314	-6.275236	-121.996177	40.935121	8.557441	0.000000	94.471593	-36.042686	5.471499	-121.238662	40.947054	21.179703	0.000000	-18.770268	3.125929	3.248853
2.820000	9.810777	3.232954	-178.102111	0.315318	0.448592	-1.208385	87.349606	-36.147833	-5.920693	-122.497071	41.026255	8.515359	0.000000	94.805623	-36.048897	5.696043	-121.731123	41.026815	21.286037	0.000000	-18.924091	3.106439	3.213549
2.825000	9.707141	3.203313	-178.088486	0.315316	0.445791	-1.208314	87.720987	-36.195248	-5.577359	-122.981707	41.137791	8.511449	0.000000	95.148764	-36.079009	5.937795	-122.203435	41.137866	21.397964	0.000000	-19.070859	3.075892	3.213990
2.830000	9.676608	3.257836	-178.048390	0.315342	0.442909	-1.208200	88.100626	-36.258928	-5.351649	-123.450333	41.227969	8.540063	0.000000	95.657589	-36.069560	6.294769	-122.663341	41.234996	21.537586	0.000000	-19.129870	3.139499	3.178153
